<?xml version="1.0" encoding="iso-8859-1"?>
<!DOCTYPE svg PUBLIC "-//W3C//DTD SVG 20000303 Stylable//EN"
"http://www.w3.org/TR/2000/03/WD-SVG-20000303/DTD/svg-20000303-stylable.dtd">

<svg width="0.3020in" height="0.8167in" viewBox="0 0 196 530">

<path style="fill:#7f7f7f;stroke:#4c4c4c;stroke-width:2" d="M56,119 l-41,-10 0,-63 41,-10 0,83z" />
<path style="fill:#7f7f7f;stroke:#4c4c4c;stroke-width:2" d="M56,307 l-41,-10 0,-63 41,-10 0,83z" />
<path style="fill:#7f7f7f;stroke:#4c4c4c;stroke-width:2" d="M56,494 l-41,-10 0,-62 41,-11 0,83z" />
<path style="fill:#7f7f7f" d="M56,15 l125,0 0,500 -125,0 0,-500z" />
<path style="fill:#999" d="M56,46 l125,0 0,439 -125,0 0,-439z" />
<path style="fill:#b2b2b2" d="M56,100 l125,0 0,332 -125,0 0,-332z" />
<path style="fill:#ccc" d="M56,151 l125,0 0,229 -125,0 0,-229z" />
<path style="fill:#e5e5e5" d="M56,191 l125,0 0,147 -125,0 0,-147z" />
<path style="fill:#fff" d="M56,235 l125,0 0,61 -125,0 0,-61z" />
<path style="fill:none;stroke:#4c4c4c;stroke-width:2" d="M56,15 l125,0 0,500 -125,0 0,-500" />
<path style="fill:#b2b2b2;stroke:#4c4c4c;stroke-width:2" d="M56,104 l-41,-6 0,-52 41,-10 0,68z" />
<path style="fill:#b2b2b2;stroke:#4c4c4c;stroke-width:2" d="M56,291 l-41,-5 0,-52 41,-10 0,67z" />
<path style="fill:#b2b2b2;stroke:#4c4c4c;stroke-width:2" d="M56,479 l-41,-5 0,-52 41,-11 0,68z" />
<path style="fill:#e5e5e5;stroke:#4c4c4c;stroke-width:2" d="M15,57 l0,-11 41,-10 0,16 -41,5z" />
<path style="fill:#e5e5e5;stroke:#4c4c4c;stroke-width:2" d="M15,244 l0,-10 41,-10 0,15 -41,5z" />
<path style="fill:#e5e5e5;stroke:#4c4c4c;stroke-width:2" d="M15,432 l0,-10 41,-11 0,16 -41,5z" />

</svg>
